<svg width="56" height="56" viewBox="0 0 56 56" fill="none" xmlns="http://www.w3.org/2000/svg">
<path fill-rule="evenodd" clip-rule="evenodd" d="M27.6667 2C13.4914 2 2 13.4914 2 27.6667C2 41.842 13.4914 53.3333 27.6667 53.3333C41.842 53.3333 53.3333 41.842 53.3333 27.6667C53.3333 13.4914 41.842 2 27.6667 2ZM0 27.6667C0 12.3868 12.3868 0 27.6667 0C42.9465 0 55.3333 12.3868 55.3333 27.6667C55.3333 42.9465 42.9465 55.3333 27.6667 55.3333C12.3868 55.3333 0 42.9465 0 27.6667Z" fill="#FAE992"/>
<path fill-rule="evenodd" clip-rule="evenodd" d="M28.3738 16.2929C28.7643 16.6834 28.7643 17.3166 28.3738 17.7071L18.4142 27.6667L28.3738 37.6262C28.7643 38.0168 28.7643 38.6499 28.3738 39.0404C27.9832 39.431 27.3501 39.431 26.9596 39.0404L16.2929 28.3738C15.9024 27.9832 15.9024 27.3501 16.2929 26.9596L26.9596 16.2929C27.3501 15.9024 27.9832 15.9024 28.3738 16.2929Z" fill="#FAE992"/>
<path fill-rule="evenodd" clip-rule="evenodd" d="M16 27.6667C16 27.1145 16.4477 26.6667 17 26.6667H38.3333C38.8856 26.6667 39.3333 27.1145 39.3333 27.6667C39.3333 28.219 38.8856 28.6667 38.3333 28.6667H17C16.4477 28.6667 16 28.219 16 27.6667Z" fill="#FAE992"/>
</svg>
