<svg width="56" height="56" viewBox="0 0 56 56" fill="none" xmlns="http://www.w3.org/2000/svg">
<path fill-rule="evenodd" clip-rule="evenodd" d="M18.7071 37.0919C18.3166 36.7014 18.3528 36.032 18.7879 35.5969L35.5969 18.7879C36.032 18.3528 36.7014 18.3166 37.0919 18.7071C37.4824 19.0976 37.4462 19.767 37.0111 20.2021L20.2021 37.0111C19.767 37.4462 19.0976 37.4824 18.7071 37.0919Z" fill="#FAE992"/>
<path fill-rule="evenodd" clip-rule="evenodd" d="M18.7071 18.7071C19.0976 18.3166 19.7669 18.3528 20.2021 18.7879L37.011 35.5969C37.4462 36.032 37.4824 36.7014 37.0919 37.0919C36.7013 37.4824 36.032 37.4462 35.5968 37.0111L18.7879 20.2021C18.3527 19.767 18.3166 19.0976 18.7071 18.7071Z" fill="#FAE992"/>
<path fill-rule="evenodd" clip-rule="evenodd" d="M27.6667 2C13.4914 2 2 13.4914 2 27.6667C2 41.842 13.4914 53.3333 27.6667 53.3333C41.842 53.3333 53.3333 41.842 53.3333 27.6667C53.3333 13.4914 41.842 2 27.6667 2ZM0 27.6667C0 12.3868 12.3868 0 27.6667 0C42.9465 0 55.3333 12.3868 55.3333 27.6667C55.3333 42.9465 42.9465 55.3333 27.6667 55.3333C12.3868 55.3333 0 42.9465 0 27.6667Z" fill="#FAE992"/>
</svg>
