<svg width="48" height="48" viewBox="0 0 48 48" fill="none" xmlns="http://www.w3.org/2000/svg">
<circle cx="24" cy="24" r="23" stroke="black" stroke-width="2"/>
<path d="M7.85457 21.092V24.854H13.9746V26.546H7.85457V30.308H14.5146V32H6.05457V19.4H14.5146V21.092H7.85457ZM28.3767 19.4V32H26.3967L18.9807 21.812V32H17.2167V19.4H19.4307L26.6127 29.354V19.4H28.3767ZM43.3132 25.52V32H41.6932V29.876C41.2012 30.584 40.5652 31.148 39.7852 31.568C39.0172 31.976 38.1412 32.18 37.1572 32.18C35.9812 32.18 34.9072 31.898 33.9352 31.334C32.9632 30.758 32.1952 29.978 31.6312 28.994C31.0792 27.998 30.8032 26.9 30.8032 25.7C30.8032 24.5 31.0852 23.408 31.6492 22.424C32.2252 21.428 33.0052 20.648 33.9892 20.084C34.9732 19.508 36.0652 19.22 37.2652 19.22C38.5252 19.22 39.6592 19.562 40.6672 20.246C41.6872 20.93 42.4192 21.848 42.8632 23H40.8112C40.4392 22.364 39.9472 21.866 39.3352 21.506C38.7232 21.134 38.0332 20.948 37.2652 20.948C36.4132 20.948 35.6392 21.158 34.9432 21.578C34.2472 21.998 33.6952 22.574 33.2872 23.306C32.8912 24.026 32.6932 24.824 32.6932 25.7C32.6932 26.576 32.8912 27.38 33.2872 28.112C33.6832 28.832 34.2232 29.402 34.9072 29.822C35.5912 30.242 36.3472 30.452 37.1752 30.452C38.2912 30.452 39.2212 30.14 39.9652 29.516C40.7212 28.88 41.2192 28.094 41.4592 27.158H36.9772V25.52H43.3132Z" fill="black"/>
</svg>
