<svg width="12" height="17" viewBox="0 0 12 17" fill="none" xmlns="http://www.w3.org/2000/svg">
<path fill-rule="evenodd" clip-rule="evenodd" d="M5.88451 0.576286C5.78303 0.71358 4.44861 2.52417 2.91914 4.59981C0.720244 7.5839 0.140748 8.3756 0.150159 8.38277C0.170133 8.39799 6.05855 11.2418 6.06999 11.2417C6.08688 11.2417 11.9995 8.38043 11.9977 8.37319C11.9961 8.36694 6.14824 0.428071 6.09518 0.360173L6.06899 0.32666L5.88451 0.576286ZM0.158466 9.32142C0.23116 9.40814 6.07034 16.1346 6.07167 16.1331C6.0733 16.1313 11.8862 9.43459 11.9647 9.34398C12.0005 9.30274 12.0037 9.29635 11.9845 9.30476C11.9719 9.31028 10.6383 9.95383 9.02111 10.7349C7.40387 11.5159 6.07591 12.155 6.07008 12.155C6.06425 12.1551 4.73043 11.5132 3.10605 10.7286C1.48167 9.94401 0.148875 9.30039 0.144307 9.29834C0.139729 9.29628 0.1461 9.30667 0.158466 9.32142Z" fill="white"/>
</svg>
