<svg fill="#171717" width="83" height="52" viewBox="0 0 83 52" xmlns="http://www.w3.org/2000/svg">
    <path d="M10.392 14.496C11.528 14.944 12.392 15.736 12.984 16.872C13.576 17.992 13.872 19.256 13.872 20.664V22.32H11.472V20.64C11.472 18.912 10.912 17.632 9.792 16.8C8.672 15.968 6.944 15.552 4.608 15.552H2.4V22.32H0V11.808C0 10.496 0.288 9.352 0.864 8.376C1.456 7.384 2.288 6.624 3.36 6.096C4.448 5.552 5.712 5.28 7.152 5.28C8.432 5.28 9.552 5.496 10.512 5.928C11.472 6.344 12.208 6.936 12.72 7.704C13.248 8.472 13.512 9.368 13.512 10.392C13.512 11.24 13.232 12.048 12.672 12.816C12.128 13.584 11.368 14.144 10.392 14.496ZM6.864 13.416C8.176 13.416 9.192 13.152 9.912 12.624C10.632 12.096 10.992 11.384 10.992 10.488C10.992 9.576 10.648 8.864 9.96 8.352C9.288 7.824 8.352 7.56 7.152 7.56C5.68 7.56 4.52 7.96 3.672 8.76C2.824 9.544 2.4 10.624 2.4 12V13.416H6.864Z"
          fill="#171717"/>
    <path d="M19.515 5.52V22.32H17.115V5.52H19.515ZM21.315 0L19.395 3.6H16.995L18.675 0H21.315Z" fill="#171717"/>
    <path d="M31.9056 5.52C33.5056 5.52 34.9616 5.896 36.2736 6.648C37.5856 7.4 38.6096 8.424 39.3456 9.72C40.0976 11.016 40.4736 12.456 40.4736 14.04C40.4736 15.624 40.0976 17.064 39.3456 18.36C38.5936 19.656 37.5616 20.68 36.2496 21.432C34.9536 22.184 33.5136 22.56 31.9296 22.56C30.3456 22.56 28.8976 22.2 27.5856 21.48C26.2736 20.744 25.2416 19.752 24.4896 18.504C23.7376 17.24 23.3616 15.856 23.3616 14.352C23.3616 12.992 23.6656 11.736 24.2736 10.584C24.8816 9.416 25.7216 8.456 26.7936 7.704H23.3616V5.52H31.9056ZM31.9056 20.256C33.0256 20.256 34.0496 19.984 34.9776 19.44C35.9056 18.88 36.6336 18.12 37.1616 17.16C37.6896 16.2 37.9536 15.136 37.9536 13.968C37.9536 12.8 37.6896 11.736 37.1616 10.776C36.6336 9.816 35.9056 9.064 34.9776 8.52C34.0496 7.96 33.0256 7.68 31.9056 7.68C30.7856 7.68 29.7616 7.96 28.8336 8.52C27.9216 9.064 27.2016 9.816 26.6736 10.776C26.1456 11.736 25.8816 12.8 25.8816 13.968C25.8816 15.136 26.1456 16.2 26.6736 17.16C27.2016 18.12 27.9216 18.88 28.8336 19.44C29.7616 19.984 30.7856 20.256 31.9056 20.256Z"
          fill="#171717"/>
    <path d="M55.7222 22.32V19.8L45.8822 11.088V22.32H43.4822V5.52H45.8822V8.04L55.7222 16.752V5.52H58.1222V22.32H55.7222Z"
          fill="#171717"/>
    <path d="M69.9071 20.256C71.1231 20.256 72.1791 19.952 73.0751 19.344C73.9871 18.72 74.6911 17.872 75.1871 16.8H77.8511C77.4831 17.952 76.9071 18.968 76.1231 19.848C75.3551 20.712 74.4351 21.384 73.3631 21.864C72.2911 22.328 71.1391 22.56 69.9071 22.56C68.3231 22.56 66.8751 22.184 65.5631 21.432C64.2671 20.664 63.2431 19.624 62.4911 18.312C61.7391 16.984 61.3631 15.52 61.3631 13.92C61.3631 12.32 61.7391 10.864 62.4911 9.552C63.2431 8.224 64.2671 7.184 65.5631 6.432C66.8751 5.664 68.3231 5.28 69.9071 5.28C71.1391 5.28 72.2911 5.52 73.3631 6C74.4351 6.464 75.3551 7.136 76.1231 8.016C76.9071 8.88 77.4831 9.888 77.8511 11.04H75.1871C74.6911 9.968 73.9871 9.128 73.0751 8.52C72.1791 7.896 71.1231 7.584 69.9071 7.584C68.8991 7.584 67.9631 7.808 67.0991 8.256C66.2511 8.704 65.5471 9.328 64.9871 10.128C64.4271 10.912 64.0671 11.8 63.9071 12.792H71.2271V15.048H63.9071C64.0671 16.04 64.4271 16.936 64.9871 17.736C65.5471 18.52 66.2511 19.136 67.0991 19.584C67.9631 20.032 68.8991 20.256 69.9071 20.256Z"
          fill="#171717"/>
    <path d="M22.368 34.52V51.32H19.968V39.392H17.856C16.112 39.392 14.784 39.88 13.872 40.856C12.96 41.816 12.504 43.224 12.504 45.08V51.32H10.104V45.08C10.104 43.224 9.648 41.816 8.736 40.856C7.824 39.88 6.496 39.392 4.752 39.392H2.64V51.32H0.24V34.52H2.64V37.16H4.968C6.552 37.16 7.864 37.448 8.904 38.024C9.96 38.6 10.76 39.488 11.304 40.688C11.848 39.488 12.64 38.6 13.68 38.024C14.736 37.448 16.056 37.16 17.64 37.16H19.968V34.52H22.368Z"
          fill="#171717"/>
    <path d="M29.0775 34.52V51.32H26.6775V34.52H29.0775Z"/>
    <path d="M34.3641 48.128C34.8441 48.128 35.3161 48.184 35.7801 48.296C36.2441 48.392 36.8361 48.552 37.5561 48.776C38.1641 48.968 38.6761 49.12 39.0921 49.232C39.5241 49.328 39.9401 49.376 40.3401 49.376C41.2841 49.376 42.0601 49.16 42.6681 48.728C43.2921 48.296 43.6041 47.76 43.6041 47.12C43.6041 46.496 43.3961 46 42.9801 45.632C42.5801 45.264 42.0921 44.992 41.5161 44.816C40.9561 44.64 40.2121 44.464 39.2841 44.288L38.6841 44.168C37.3401 43.912 36.2041 43.6 35.2761 43.232C34.3481 42.848 33.6121 42.32 33.0681 41.648C32.5241 40.976 32.2521 40.112 32.2521 39.056C32.2521 38.112 32.5161 37.28 33.0441 36.56C33.5881 35.824 34.3481 35.264 35.3241 34.88C36.3001 34.48 37.4201 34.28 38.6841 34.28C40.5561 34.28 42.1241 34.712 43.3881 35.576C44.6681 36.424 45.5001 37.592 45.8841 39.08H43.3641C43.0601 38.312 42.4841 37.704 41.6361 37.256C40.8041 36.808 39.7881 36.584 38.5881 36.584C37.4041 36.584 36.4601 36.808 35.7561 37.256C35.0681 37.688 34.7241 38.288 34.7241 39.056C34.7241 39.648 34.9321 40.128 35.3481 40.496C35.7641 40.848 36.2761 41.112 36.8841 41.288C37.5081 41.464 38.3641 41.648 39.4521 41.84C40.7161 42.064 41.8201 42.344 42.7641 42.68C43.7081 43.016 44.4921 43.52 45.1161 44.192C45.7401 44.848 46.0521 45.704 46.0521 46.76C46.0521 47.72 45.8201 48.568 45.3561 49.304C44.9081 50.024 44.2761 50.584 43.4601 50.984C42.6441 51.368 41.6921 51.56 40.6041 51.56C39.8841 51.56 39.2201 51.488 38.6121 51.344C38.0041 51.216 37.3161 51.024 36.5481 50.768C36.1801 50.64 35.8121 50.536 35.4441 50.456C35.0921 50.36 34.7881 50.312 34.5321 50.312C34.2121 50.312 33.9721 50.392 33.8121 50.552C33.6521 50.696 33.5721 50.896 33.5721 51.152V51.32H31.2441C31.2441 49.192 32.2841 48.128 34.3641 48.128Z"
          fill="#171717"/>
    <path d="M63.3544 40.28H61.0504V36.824H56.3944V51.32H53.9944V36.824H49.3384V42.2H47.0344V34.52H63.3544V40.28Z"
          fill="#171717"/>
    <path d="M73.3341 51.56C71.7181 51.56 70.2381 51.184 68.8941 50.432C67.5501 49.664 66.4941 48.624 65.7261 47.312C64.9581 45.984 64.5741 44.52 64.5741 42.92C64.5741 41.32 64.9581 39.864 65.7261 38.552C66.4941 37.224 67.5501 36.184 68.8941 35.432C70.2381 34.664 71.7181 34.28 73.3341 34.28C74.9501 34.28 76.4301 34.664 77.7741 35.432C79.1181 36.184 80.1741 37.224 80.9421 38.552C81.7101 39.864 82.0941 41.32 82.0941 42.92C82.0941 44.52 81.7101 45.984 80.9421 47.312C80.1741 48.624 79.1181 49.664 77.7741 50.432C76.4301 51.184 74.9501 51.56 73.3341 51.56ZM73.3341 49.256C74.4861 49.256 75.5341 48.976 76.4781 48.416C77.4381 47.856 78.1901 47.096 78.7341 46.136C79.2941 45.16 79.5741 44.088 79.5741 42.92C79.5741 41.752 79.2941 40.688 78.7341 39.728C78.1901 38.752 77.4381 37.984 76.4781 37.424C75.5341 36.864 74.4861 36.584 73.3341 36.584C72.1821 36.584 71.1261 36.864 70.1661 37.424C69.2221 37.984 68.4701 38.752 67.9101 39.728C67.3661 40.688 67.0941 41.752 67.0941 42.92C67.0941 44.088 67.3661 45.16 67.9101 46.136C68.4701 47.096 69.2221 47.856 70.1661 48.416C71.1261 48.976 72.1821 49.256 73.3341 49.256Z"
          fill="#171717"/>
</svg>
