<svg width="30" height="37" viewBox="0 0 30 37" fill="none" xmlns="http://www.w3.org/2000/svg">
<path fill-rule="evenodd" clip-rule="evenodd" d="M2 17.125C2.89746 17.125 3.625 17.8525 3.625 18.75V31.75C3.625 32.181 3.7962 32.5943 4.10095 32.899C4.4057 33.2038 4.81902 33.375 5.25 33.375H24.75C25.181 33.375 25.5943 33.2038 25.899 32.899C26.2038 32.5943 26.375 32.181 26.375 31.75V18.75C26.375 17.8525 27.1025 17.125 28 17.125C28.8975 17.125 29.625 17.8525 29.625 18.75V31.75C29.625 33.0429 29.1114 34.2829 28.1971 35.1971C27.2829 36.1114 26.0429 36.625 24.75 36.625H5.25C3.95707 36.625 2.71709 36.1114 1.80285 35.1971C0.888615 34.2829 0.375 33.0429 0.375 31.75V18.75C0.375 17.8525 1.10254 17.125 2 17.125Z" fill="#FAE992"/>
<path fill-rule="evenodd" clip-rule="evenodd" d="M13.851 1.35095C14.4856 0.71635 15.5144 0.71635 16.149 1.35095L22.649 7.85095C23.2837 8.48555 23.2837 9.51445 22.649 10.149C22.0144 10.7837 20.9856 10.7837 20.351 10.149L15 4.7981L9.64905 10.149C9.01445 10.7837 7.98555 10.7837 7.35095 10.149C6.71635 9.51445 6.71635 8.48555 7.35095 7.85095L13.851 1.35095Z" fill="#FAE992"/>
<path fill-rule="evenodd" clip-rule="evenodd" d="M15 0.875C15.8975 0.875 16.625 1.60254 16.625 2.5V23.625C16.625 24.5225 15.8975 25.25 15 25.25C14.1025 25.25 13.375 24.5225 13.375 23.625V2.5C13.375 1.60254 14.1025 0.875 15 0.875Z" fill="#FAE992"/>
</svg>
