<svg width="48" height="48" viewBox="0 0 48 48" fill="none" xmlns="http://www.w3.org/2000/svg">
<path d="M48 24C48 37.2548 37.2548 48 24 48C10.7452 48 0 37.2548 0 24C0 10.7452 10.7452 0 24 0C37.2548 0 48 10.7452 48 24Z" fill="url(#paint0_linear_303_402)"/>
<path d="M18.2991 31.18C17.2671 31.18 16.3311 30.952 15.4911 30.496C14.6631 30.028 14.0091 29.386 13.5291 28.57C13.0491 27.754 12.8091 26.848 12.8091 25.852V18.4H14.6091V25.852C14.6091 26.524 14.7711 27.136 15.0951 27.688C15.4191 28.24 15.8571 28.672 16.4091 28.984C16.9731 29.296 17.6031 29.452 18.2991 29.452C18.9951 29.452 19.6191 29.296 20.1711 28.984C20.7351 28.672 21.1791 28.24 21.5031 27.688C21.8271 27.136 21.9891 26.524 21.9891 25.852V18.4H23.7891V25.852C23.7891 26.848 23.5491 27.754 23.0691 28.57C22.5891 29.386 21.9291 30.028 21.0891 30.496C20.2611 30.952 19.3311 31.18 18.2991 31.18Z" fill="white"/>
<path d="M34.1431 28.12H27.3391L26.0971 31H24.1351L29.7871 18.4H31.8031L37.4551 31H35.3851L34.1431 28.12ZM33.4411 26.464L30.7591 20.254L28.0591 26.464H33.4411Z" fill="white"/>
<defs>
<linearGradient id="paint0_linear_303_402" x1="24" y1="9.45455" x2="24" y2="48" gradientUnits="userSpaceOnUse">
<stop stop-color="#FAE992"/>
<stop offset="1" stop-color="#74C1EF"/>
</linearGradient>
</defs>
</svg>
